# xmcd CD database file
#
# Track frame offsets:
#	150
#	9854
#	20181
#	29874
#	40691
#	49903
#	61899
#	71729
#	82024
#	92837
#	104903
#	116285
#	124889
#	133527
#	143347
#	153151
#	163323
#	174444
#	182304
#	194215
#	205323
#	216253
#	228105
#	237153
#	251200
#	262819
#
# Disc length: 3720 seconds
#
# Revision: 3
# Processed by: cddbd v1.5.1PL2 Copyright (c) Steve Scherf et al.
# Submitted via: CDex 1.51
#
DISCID=750e861a
DTITLE=Various Artist - The Rockin' Boppin' Ladies, Vol. 1
DYEAR=1900
DGENRE=Rock and Roll
TTITLE0=Wynona Carr - Touch And Go
TTITLE1=Ruth Brown - Mama, He Treats Your Daughter Mean
TTITLE2=Janis Martin - Barefoot Baby
TTITLE3=Lorne Lesley - Bloodshot Eyes
TTITLE4=Patty Page - I'm Walkin'
TTITLE5=Annita Tucker - Hop Skip And Jump
TTITLE6=Shirley Caddell - Shirley The Big Bounce
TTITLE7=5 De Marco Sisters - The Hot Bacarolle
TTITLE8=Brenda Lee - Little Jonah (Rock On Your Steel Guitar)
TTITLE9=Ella Mae Morse - Razzle Dazzle
TTITLE10=Jeanette Baker - Crazy With You
TTITLE11=Bertty Johnson - Honky Tonk Rock
TTITLE12=Janice Peters - A Girl Likes
TTITLE13=Pat O'Day - All Love Broke Loose
TTITLE14=Mari Jones - Riba Daba Doo
TTITLE15=Lilian Vines - I Dreamed About My Baby Last Night
TTITLE16=Pat Clayton - I Said No
TTITLE17=Shari Dee - No Feeling Any More
TTITLE18=Dolly Lyon - Palm Of Your Hand
TTITLE19=Anna Valentino - On A Tropical Island
TTITLE20=Marga Benitez - Geechie Goomie
TTITLE21=Barbara Simpson - Waiting For My Baby
TTITLE22=Shirley McLaine - John Goldfarb Please Come Home
TTITLE23=Amanda Love - You Keep Calling Me By Her Name
TTITLE24=(unknown) - Walk On The Wild Side (hidden track)
TTITLE25=(unknown) - Instrumental (hidden track)
EXTD=
EXTT0=
EXTT1=
EXTT2=
EXTT3=
EXTT4=
EXTT5=
EXTT6=
EXTT7=
EXTT8=
EXTT9=
EXTT10=
EXTT11=
EXTT12=
EXTT13=
EXTT14=
EXTT15=
EXTT16=
EXTT17=
EXTT18=
EXTT19=
EXTT20=
EXTT21=
EXTT22=
EXTT23=
EXTT24=
EXTT25=
PLAYORDER=
